<?xml version="1.0" encoding="UTF-8" standalone="no"?>
<!-- Created with Inkscape (http://www.inkscape.org/) -->

<svg
   xmlns:dc="http://purl.org/dc/elements/1.1/"
   xmlns:cc="http://creativecommons.org/ns#"
   xmlns:rdf="http://www.w3.org/1999/02/22-rdf-syntax-ns#"
   xmlns:svg="http://www.w3.org/2000/svg"
   xmlns="http://www.w3.org/2000/svg"
   xmlns:sodipodi="http://sodipodi.sourceforge.net/DTD/sodipodi-0.dtd"
   xmlns:inkscape="http://www.inkscape.org/namespaces/inkscape"
   width="1800px"
   height="350px"
   viewBox="-80 -5 80 30"
   version="1.1"
   id="svg8"
   inkscape:version="0.92.3 (2405546, 2018-03-11)"
   sodipodi:docname="colorides.svg">
  <defs
     id="defs2" />
  <sodipodi:namedview
     id="base"
     pagecolor="#ffffff"
     bordercolor="#666666"
     borderopacity="1.0"
     inkscape:pageopacity="0.0"
     inkscape:pageshadow="2"
     inkscape:zoom="0.35"
     inkscape:cx="-1146.2815"
     inkscape:cy="-26.559088"
     inkscape:document-units="mm"
     inkscape:current-layer="layer1"
     showgrid="false"
     fit-margin-top="0"
     fit-margin-left="0"
     fit-margin-right="0"
     fit-margin-bottom="0"
     showborder="false"
     inkscape:window-width="1920"
     inkscape:window-height="1017"
     inkscape:window-x="-8"
     inkscape:window-y="282"
     inkscape:window-maximized="1" />
  <metadata
     id="metadata5">
    <rdf:RDF>
      <cc:Work
         rdf:about="">
        <dc:format>image/svg+xml</dc:format>
        <dc:type
           rdf:resource="http://purl.org/dc/dcmitype/StillImage" />
        <dc:title></dc:title>
      </cc:Work>
    </rdf:RDF>
  </metadata>
  <g
     inkscape:label="Camada 1"
     inkscape:groupmode="layer"
     id="layer1"
     transform="translate(-150.20662,-126.61704)">
    <g
       aria-label="colorid.es"
       transform="matrix(0.26458333,0,0,0.26458333,31.75,-1.5119048)"
       style="font-style:normal;font-variant:normal;font-weight:normal;font-stretch:normal;font-size:18.66666603px;line-height:1.25;font-family:c;-inkscape-font-specification:c;letter-spacing:0px;word-spacing:0px;fill:#000000;fill-opacity:1;stroke:none"
       id="flowRoot815">
      <path
         d="m 48.918578,499.14689 q -2.784,0 -5.184,1.152 -2.304,1.056 -4.032,2.88 -1.728,1.824 -2.688,4.32 -0.96,2.496 -0.96,5.184 0,2.784 0.864,5.376 0.96,2.496 2.592,4.416 1.728,1.92 4.032,3.072 2.4,1.056 5.376,1.056 3.264,0 5.28,-1.152 2.112,-1.152 3.744,-2.592 1.632,-1.44 3.168,-2.592 1.536,-1.152 3.84,-1.152 h 11.904 q -1.152,5.088 -3.84,9.216 -2.688,4.128 -6.432,7.104 -3.744,2.976 -8.448,4.608 -4.608,1.632 -9.792,1.632 -5.952,0 -11.136,-2.208 -5.184,-2.304 -9.024,-6.144 -3.744,-3.936 -5.952,-9.12 -2.208,-5.184 -2.208,-11.136 0,-5.952 2.208,-11.136 2.304,-5.28 6.24,-9.216 3.936,-3.936 9.12,-6.144 5.28,-2.304 11.232,-2.304 2.784,0 6.72,0.96 4.032,0.96 7.68,2.784 3.744,1.824 6.336,4.512 2.592,2.688 2.592,6.144 0,3.168 -2.304,5.472 -2.208,2.208 -5.376,2.208 h -3.744 q -2.016,-3.072 -4.992,-5.088 -2.976,-2.112 -6.816,-2.112 z"
         style="font-style:normal;font-variant:normal;font-weight:normal;font-stretch:normal;font-size:96px;font-family:Llewie;-inkscape-font-specification:Llewie;fill:#000000;fill-opacity:1"
         id="path831"
         inkscape:connector-curvature="0" />
      <path
         d="m 111.46108,541.67489 q -6.144,0 -11.520002,-2.112 -5.28,-2.112 -9.216,-5.856 -3.936,-3.744 -6.24,-8.928 -2.208,-5.28 -2.208,-11.52 0,-6.24 2.208,-11.52 2.208,-5.28 6.048,-9.12 3.936,-3.936 9.216,-6.144 5.280002,-2.208 11.520002,-2.208 6.048,0 11.328,2.208 5.376,2.208 9.312,6.048 3.936,3.84 6.144,9.12 2.304,5.184 2.304,11.328 0,6.048 -2.304,11.328 -2.208,5.28 -6.144,9.12 -3.84,3.84 -9.12,6.048 -5.28,2.208 -11.328,2.208 z m 0,-42.336 q -2.784,0 -5.184,1.152 -2.4,1.056 -4.224,2.88 -1.824,1.824 -2.880002,4.32 -0.96,2.496 -0.96,5.184 0,2.88 0.96,5.376 0.960002,2.496 2.688002,4.416 1.824,1.92 4.224,3.072 2.496,1.056 5.376,1.056 2.784,0 5.088,-1.152 2.4,-1.152 4.128,-3.072 1.728,-1.92 2.688,-4.416 0.96,-2.496 0.96,-5.184 0,-2.592 -1.056,-5.088 -0.96,-2.496 -2.688,-4.32 -1.728,-1.92 -4.128,-3.072 -2.304,-1.152 -4.992,-1.152 z"
         style="font-style:normal;font-variant:normal;font-weight:normal;font-stretch:normal;font-size:96px;font-family:Llewie;-inkscape-font-specification:Llewie;fill:#000000;fill-opacity:1"
         id="path833"
         inkscape:connector-curvature="0" />
      <path
         d="m 149.94958,532.17089 v -56.352 q 0,-3.552 2.496,-5.568 2.592,-2.112 5.952,-2.112 1.536,0 2.88,0.672 1.44,0.576 2.496,1.632 1.056,1.056 1.632,2.496 0.672,1.344 0.672,2.88 v 56.352 q 0,3.648 -2.496,5.664 -2.496,2.016 -5.952,2.016 -1.536,0 -2.976,-0.576 -1.344,-0.672 -2.4,-1.728 -1.056,-1.056 -1.728,-2.4 -0.576,-1.44 -0.576,-2.976 z"
         style="font-style:normal;font-variant:normal;font-weight:normal;font-stretch:normal;font-size:96px;font-family:Llewie;-inkscape-font-specification:Llewie;fill:#000000;fill-opacity:1"
         id="path835"
         inkscape:connector-curvature="0" />
      <path
         d="m 202.77358,541.67489 q -6.144,0 -11.52,-2.112 -5.28,-2.112 -9.216,-5.856 -3.936,-3.744 -6.24,-8.928 -2.208,-5.28 -2.208,-11.52 0,-6.24 2.208,-11.52 2.208,-5.28 6.048,-9.12 3.936,-3.936 9.216,-6.144 5.28,-2.208 11.52,-2.208 6.048,0 11.328,2.208 5.376,2.208 9.312,6.048 3.936,3.84 6.144,9.12 2.304,5.184 2.304,11.328 0,6.048 -2.304,11.328 -2.208,5.28 -6.144,9.12 -3.84,3.84 -9.12,6.048 -5.28,2.208 -11.328,2.208 z m 0,-42.336 q -2.784,0 -5.184,1.152 -2.4,1.056 -4.224,2.88 -1.824,1.824 -2.88,4.32 -0.96,2.496 -0.96,5.184 0,2.88 0.96,5.376 0.96,2.496 2.688,4.416 1.824,1.92 4.224,3.072 2.496,1.056 5.376,1.056 2.784,0 5.088,-1.152 2.4,-1.152 4.128,-3.072 1.728,-1.92 2.688,-4.416 0.96,-2.496 0.96,-5.184 0,-2.592 -1.056,-5.088 -0.96,-2.496 -2.688,-4.32 -1.728,-1.92 -4.128,-3.072 -2.304,-1.152 -4.992,-1.152 z"
         style="font-style:normal;font-variant:normal;font-weight:normal;font-stretch:normal;font-size:96px;font-family:Llewie;-inkscape-font-specification:Llewie;fill:#000000;fill-opacity:1"
         id="path837"
         inkscape:connector-curvature="0" />
      <path
         d="m 238.86208,532.17089 v -38.4 q 0,-1.536 0.576,-2.88 0.672,-1.44 1.728,-2.496 1.056,-1.056 2.4,-1.632 1.44,-0.672 2.976,-0.672 h 7.488 v 5.664 q 2.208,-4.032 5.568,-5.76 3.456,-1.728 7.968,-1.728 v 9.408 q 0,2.88 -0.96,4.224 -0.96,1.248 -2.496,1.92 -1.44,0.672 -3.168,1.152 -1.632,0.48 -3.168,1.728 -1.44,1.248 -2.4,3.744 -0.96,2.496 -0.96,7.2 0,3.552 0.384,7.104 0.48,3.456 0.48,7.008 0,2.304 -0.384,4.512 -0.288,2.112 -1.248,3.84 -0.864,1.728 -2.592,2.784 -1.728,0.96 -4.512,0.96 -3.168,0 -5.472,-2.208 -2.208,-2.304 -2.208,-5.472 z"
         style="font-style:normal;font-variant:normal;font-weight:normal;font-stretch:normal;font-size:96px;font-family:Llewie;-inkscape-font-specification:Llewie;fill:#000000;fill-opacity:1"
         id="path839"
         inkscape:connector-curvature="0" />
      <path
         d="m 289.11058,493.77089 v 38.4 q 0,3.456 -2.496,5.568 -2.4,2.112 -5.76,2.112 -3.168,0 -5.472,-2.208 -2.208,-2.304 -2.208,-5.472 v -38.4 q 0,-3.456 2.4,-5.568 2.496,-2.112 5.856,-2.112 1.536,0 2.88,0.672 1.44,0.576 2.496,1.632 1.056,1.056 1.632,2.496 0.672,1.344 0.672,2.88 z m 0,-25.632 v 4.608 q 0,1.536 -0.672,2.976 -0.576,1.344 -1.632,2.4 -1.056,1.056 -2.496,1.728 -1.344,0.576 -2.88,0.576 h -8.256 v -4.608 q 0,-1.536 0.576,-2.88 0.672,-1.44 1.728,-2.496 1.056,-1.056 2.4,-1.632 1.44,-0.672 2.976,-0.672 z"
         style="font-style:normal;font-variant:normal;font-weight:normal;font-stretch:normal;font-size:96px;font-family:Llewie;-inkscape-font-specification:Llewie;fill:#000000;fill-opacity:1"
         id="path841"
         inkscape:connector-curvature="0" />
      <path
         d="m 353.90158,475.81889 v 56.544 q 0,1.536 -0.672,2.976 -0.576,1.344 -1.632,2.4 -1.056,1.056 -2.496,1.728 -1.344,0.576 -2.88,0.576 h -7.584 v -5.856 q -3.072,3.936 -7.296,5.664 -4.224,1.824 -9.12,1.824 -6.24,0 -11.232,-2.208 -4.896,-2.304 -8.448,-6.144 -3.552,-3.936 -5.472,-9.216 -1.824,-5.28 -1.824,-11.232 0,-5.76 1.92,-10.944 1.92,-5.184 5.472,-9.12 3.552,-3.936 8.448,-6.24 4.896,-2.304 10.848,-2.304 2.112,0 4.128,0.576 2.016,0.48 4.128,0.48 3.072,0 4.512,-1.248 1.536,-1.344 2.208,-3.168 0.672,-1.92 0.96,-4.128 0.288,-2.304 1.056,-4.128 0.768,-1.92 2.4,-3.168 1.632,-1.344 4.896,-1.344 1.536,0 2.88,0.672 1.44,0.576 2.496,1.632 1.056,1.056 1.632,2.496 0.672,1.344 0.672,2.88 z m -28.896,23.52 q -2.88,0 -5.472,1.056 -2.496,0.96 -4.416,2.784 -1.824,1.824 -2.88,4.32 -1.056,2.4 -1.056,5.376 0,2.88 0.96,5.472 1.056,2.496 2.784,4.416 1.824,1.824 4.32,2.976 2.496,1.056 5.472,1.056 2.976,0 5.472,-1.056 2.592,-1.056 4.416,-2.88 1.92,-1.824 2.88,-4.32 1.056,-2.592 1.056,-5.664 0,-2.976 -1.056,-5.376 -0.96,-2.496 -2.784,-4.32 -1.824,-1.824 -4.32,-2.784 -2.4,-1.056 -5.376,-1.056 z"
         style="font-style:normal;font-variant:normal;font-weight:normal;font-stretch:normal;font-size:96px;font-family:Llewie;-inkscape-font-specification:Llewie;fill:#000000;fill-opacity:1"
         id="path843"
         inkscape:connector-curvature="0" />
      <path
         d="m 379.13308,532.17089 q 0,2.016 -0.768,3.456 -0.768,1.44 -2.016,2.4 -1.248,0.864 -2.88,1.344 -1.632,0.48 -3.456,0.48 -3.84,0 -5.76,-2.592 -1.92,-2.592 -1.92,-6.144 0,-1.92 0.768,-3.36 0.768,-1.44 2.016,-2.4 1.248,-0.96 2.88,-1.44 1.728,-0.48 3.456,-0.48 3.648,0 5.664,2.688 2.016,2.592 2.016,6.048 z"
         style="font-style:normal;font-variant:normal;font-weight:normal;font-stretch:normal;font-size:96px;font-family:Llewie;-inkscape-font-specification:Llewie;fill:#000000;fill-opacity:1"
         id="path845"
         inkscape:connector-curvature="0" />
      <path
         d="m 424.32208,523.14689 h 0.768 q 1.536,0 2.976,0.672 1.44,0.576 2.496,1.632 1.056,1.056 1.728,2.496 0.672,1.344 0.672,2.88 0,2.88 -2.016,4.992 -2.016,2.016 -4.896,3.36 -2.88,1.248 -6.048,1.824 -3.168,0.672 -5.472,0.672 -5.952,0 -11.136,-2.208 -5.088,-2.304 -8.928,-6.144 -3.84,-3.936 -6.048,-9.12 -2.208,-5.184 -2.208,-11.04 0,-5.76 2.112,-11.04 2.208,-5.28 5.952,-9.216 3.84,-3.936 8.928,-6.24 5.088,-2.4 11.04,-2.4 5.28,0 10.272,2.112 5.088,2.016 9.024,5.664 3.936,3.552 6.336,8.352 2.4,4.8 2.4,10.272 0,3.072 -2.208,5.28 -2.208,2.112 -5.28,2.112 h -32.832 q 0.48,4.704 3.84,7.392 3.36,2.592 7.968,2.592 3.072,0 5.856,-1.248 2.784,-1.344 4.704,-3.648 z m 2.208,-15.84 q -0.96,-4.32 -4.416,-6.816 -3.456,-2.592 -7.776,-2.592 -4.608,0 -7.776,2.496 -3.168,2.4 -4.32,6.912 z"
         style="font-style:normal;font-variant:normal;font-weight:normal;font-stretch:normal;font-size:96px;font-family:Llewie;-inkscape-font-specification:Llewie;fill:#000000;fill-opacity:1"
         id="path847"
         inkscape:connector-curvature="0" />
      <path
         d="m 469.98208,484.26689 q 3.936,0 7.392,1.152 3.456,1.056 6.048,3.264 2.688,2.112 4.32,5.28 1.728,3.168 2.112,7.2 h -10.944 q -1.824,0 -2.976,-0.576 -1.152,-0.672 -2.112,-1.44 -0.96,-0.768 -1.92,-1.344 -0.96,-0.672 -2.304,-0.672 -1.632,0 -3.36,0.864 -1.728,0.768 -1.728,2.688 0,2.112 2.016,3.36 2.016,1.152 4.992,2.112 3.072,0.864 6.528,1.92 3.552,0.96 6.528,2.784 3.072,1.824 5.088,4.8 2.016,2.976 2.016,7.776 0,4.512 -2.016,7.968 -2.016,3.36 -5.28,5.664 -3.168,2.304 -7.2,3.456 -3.936,1.152 -7.968,1.152 -4.224,0 -7.968,-1.152 -3.648,-1.152 -6.528,-3.36 -2.88,-2.304 -4.704,-5.568 -1.824,-3.36 -2.304,-7.68 h 11.136 q 1.92,0 3.168,0.768 1.248,0.768 2.304,1.728 1.152,0.864 2.4,1.632 1.248,0.768 3.168,0.768 0.864,0 1.824,-0.192 1.056,-0.288 1.92,-0.768 0.96,-0.48 1.536,-1.248 0.576,-0.864 0.576,-1.92 0,-2.112 -2.016,-3.264 -2.016,-1.248 -5.088,-2.112 -3.072,-0.864 -6.624,-1.824 -3.456,-1.056 -6.528,-2.784 -3.072,-1.824 -5.088,-4.704 -2.016,-2.976 -2.016,-7.872 0,-4.224 1.92,-7.488 1.92,-3.36 4.992,-5.664 3.168,-2.304 7.008,-3.456 3.84,-1.248 7.68,-1.248 z"
         style="font-style:normal;font-variant:normal;font-weight:normal;font-stretch:normal;font-size:96px;font-family:Llewie;-inkscape-font-specification:Llewie;fill:#000000;fill-opacity:1"
         id="path849"
         inkscape:connector-curvature="0" />
    </g>
  </g>
</svg>
